<svg width="30" height="30" viewBox="0 0 30 30" fill="none" xmlns="http://www.w3.org/2000/svg">
<path d="M14 1C6.49732 1 1 6.49732 1 14C1 21.5027 6.49862 27 14 27C21.5014 27 27 21.5014 27 14C27 6.49862 21.5027 1 14 1ZM23.9862 10.7287H16.4998L14.0853 3.49163C18.7015 3.52878 22.6159 6.55647 23.9862 10.7287ZM13.9147 3.49163L11.5028 10.7287H4.01634C5.38419 6.55647 9.29844 3.5289 13.9147 3.49163ZM3.48973 14C3.48944 12.968 3.64168 11.9416 3.9415 10.9541L9.95927 15.4459L7.75041 22.4466C6.42895 21.4702 5.35506 20.1973 4.61508 18.7303C3.87511 17.2633 3.48958 15.6431 3.48973 14ZM8.02459 22.6394L14 18.3793L19.9755 22.6394C18.2207 23.8571 16.1359 24.5096 14 24.5096C11.8641 24.5096 9.77932 23.8571 8.02459 22.6394ZM20.2469 22.444L18.0407 15.4433L24.0585 10.9514C24.6885 13.0263 24.6606 15.2453 23.9786 17.3036C23.2965 19.3619 21.9938 21.1586 20.2495 22.4466L20.2469 22.444Z" fill="white"/>
</svg>
