<svg width="30" height="30" viewBox="0 0 30 30" fill="none" xmlns="http://www.w3.org/2000/svg">
<path d="M13.4528 0.9375C9.14144 1.2252 5.89594 4.8501 5.89594 9.27797C5.89594 10.3658 6.10143 11.4071 6.47643 12.3596C6.85881 13.3307 7.35381 14.4561 11.2647 18.1641L12.4055 17.4976C12.3338 17.2952 12.2956 17.0783 12.2956 16.8513C12.2956 15.933 12.9339 15.1654 13.7861 14.9743V13.6413C10.4863 13.4372 7.86633 10.6724 7.86633 7.2876C7.86633 3.95748 10.2287 1.21945 13.4529 0.9375H13.4528ZM14.1998 8.98318C12.4623 8.98318 10.8569 9.55541 9.55805 10.523C9.95748 11.0893 10.4538 11.5868 11.0174 11.9842C11.9315 11.3784 13.025 11.0248 14.1999 11.0248C15.4387 11.0248 16.5878 11.4173 17.5306 12.085C18.3584 11.8829 19.1948 11.7209 20.0428 11.6309C18.609 10.0073 16.5231 8.98318 14.1998 8.98318V8.98318ZM20.8008 12.2515C19.7653 12.2696 18.0884 12.5471 14.5588 13.6249V14.9544C14.768 14.9928 14.9738 15.0696 15.1685 15.1832C15.9555 15.6422 16.295 16.5833 16.0327 17.4244L17.1753 18.0909C19.0003 15.3059 22.6802 14.3971 25.5817 16.0895C28.4363 17.7545 29.6016 21.1897 28.2312 24.1517C30.1403 20.2358 28.656 15.5825 24.8603 13.3686C23.9277 12.8247 22.9328 12.484 21.9287 12.3359C21.6088 12.2887 21.2715 12.2435 20.8008 12.2517V12.2515ZM6.76934 14.4086C6.09434 16.4748 6.25957 18.8121 7.42125 20.8447C8.29008 22.3649 9.58254 23.4844 11.0614 24.137C11.3472 23.5044 11.5263 22.8202 11.5852 22.1283C10.6087 21.6316 9.75926 20.8529 9.17174 19.8248C8.5524 18.741 8.31451 17.5394 8.41559 16.3807C7.82836 15.7574 7.27066 15.1055 6.76945 14.4086H6.76934ZM21.9838 16.0254C21.2987 16.0916 20.6232 16.2768 20.0007 16.5711C20.0632 17.6738 19.8191 18.8078 19.2317 19.8358C18.6122 20.9198 17.7028 21.7288 16.659 22.22C16.4184 23.0453 16.1379 23.8573 15.7911 24.6442C17.8999 24.2017 19.8204 22.8884 20.9821 20.8558C21.8509 19.3355 22.1638 17.6456 21.9837 16.0254L21.9838 16.0254ZM15.6592 18.0963C15.5215 18.2602 15.3521 18.4021 15.1574 18.5156C14.3704 18.9746 13.3926 18.8013 12.8027 18.1512L11.6619 18.8159C13.1369 21.8051 12.0751 25.4804 9.17355 27.1728C6.31898 28.8378 2.79129 28.1389 0.9375 25.459C3.33973 29.0871 8.07129 30.1155 11.867 27.9016C12.7996 27.3578 13.5873 26.6571 14.2163 25.8526C14.8577 25.0327 15.5749 24.0367 16.7981 18.761L15.6592 18.0963Z" fill="white"/>
</svg>
