<svg width="100" height="100" viewBox="0 0 100 100" fill="none" xmlns="http://www.w3.org/2000/svg">
<path d="M39.7949 3.99799C39.5976 4.00111 39.3994 4.00892 39.2031 4.01615C25.5722 4.50638 13.271 13.6583 9.55814 27.5146C7.40287 35.5607 12.2056 43.8857 20.2453 46.0449V46.039C28.2855 48.1933 36.4507 43.3736 38.5988 35.3574C40.1462 29.58 43.0622 25.4292 47.1191 23.2177C51.1757 21.0062 56.1699 20.8115 61.5966 22.2656C63.6402 22.8138 65.4984 23.6386 67.1753 24.7374C68.0285 24.2929 68.914 23.9113 69.8302 23.5962C68.1456 19.5169 65.6673 15.8122 62.4572 12.7745H62.4513C62.4388 12.7628 62.4273 12.7497 62.4148 12.738C58.7019 9.23412 54.0658 6.53334 48.7611 5.10834C45.763 4.30443 42.7517 3.94564 39.7951 3.9976L39.7949 3.99799ZM24.3593 20.2027C27.2105 20.2027 30.0624 21.2857 32.2265 23.4495C36.5574 27.7806 36.5484 34.8564 32.2206 39.1845L31.6894 39.7158H31.6285C27.2671 43.4927 20.6236 43.3226 16.4855 39.1845C12.1546 34.8536 12.1574 27.7777 16.4855 23.4495C18.6511 21.2841 21.5076 20.2023 24.3591 20.2027H24.3593ZM24.3593 23.8281C22.4492 23.8277 20.5351 24.5574 19.0673 26.0253C16.1341 28.9585 16.1318 33.6671 19.0673 36.6027C22.0003 39.5357 26.7089 39.5386 29.6447 36.6027C32.5783 33.6695 32.5806 28.9609 29.6447 26.0253C28.1785 24.5585 26.2693 23.8285 24.3595 23.8281H24.3593ZM52.356 25.2076C51.0845 25.439 49.9193 25.8472 48.8648 26.422C48.0021 26.8927 47.1982 27.4792 46.4538 28.1984C50.9488 28.2078 55.4388 29.5413 59.3015 32.1902C59.8898 31.1156 60.5964 30.089 61.4197 29.1261C58.6267 27.2224 55.5447 25.9156 52.3556 25.2076H52.356ZM75.7384 26.2511C71.8228 26.2519 67.9095 27.7202 64.972 30.6579C59.1013 36.5285 59.349 46.0661 65.2285 51.9408C69.462 56.1712 71.6009 60.7952 71.4843 65.4294C71.3675 70.0636 69.0324 74.4978 65.0574 78.4724C63.1296 80.4005 60.9167 81.6693 58.6365 82.5437C58.531 83.2429 58.3669 83.9212 58.1845 84.5945C68.0361 86.3634 78.4886 83.4812 86.1689 75.8054C98.663 63.3165 98.9931 43.1343 86.5111 30.6578C83.5708 27.7175 79.654 26.2499 75.7382 26.2507L75.7384 26.2511ZM75.5314 30.432C78.3826 30.4324 81.2345 31.5152 83.3986 33.679C87.7294 38.0101 87.7267 45.0859 83.3986 49.414C79.0675 53.7451 71.9917 53.7421 67.6636 49.414C63.3327 45.0831 63.3355 38.0072 67.6636 33.679C69.8292 31.5136 72.6796 30.4316 75.5312 30.432H75.5314ZM75.5314 34.0576C73.6212 34.0572 71.7134 34.7931 70.2454 36.2607C67.3124 39.1943 67.3099 43.8966 70.2454 46.8322C73.1785 49.7654 77.881 49.7683 80.8167 46.8322C83.7503 43.8992 83.7527 39.1968 80.8167 36.2611C79.3505 34.7947 77.4413 34.0579 75.5316 34.0579L75.5314 34.0576ZM46.7716 36.9931C45.0093 36.9931 43.2472 37.3281 41.5833 37.9882C39.9798 42.3091 36.8927 45.7597 33.0628 47.8759C32.0003 52.4458 33.2517 57.4394 36.8226 61.0107C36.9765 61.1642 37.1341 61.3115 37.2927 61.456C41.5818 60.7812 45.8585 61.6167 49.4753 63.6353L49.6253 63.697L51.0562 64.465C53.1226 63.8029 55.0702 62.6544 56.7144 61.0105C59.1382 58.5867 60.496 55.5066 60.7853 52.3495C58.4142 49.1372 57.1607 45.3222 57.0679 41.4917C56.9515 41.3667 56.8359 41.2411 56.714 41.1193C53.9617 38.3673 50.3677 36.9935 46.7714 36.9935L46.7716 36.9931ZM10.4857 44.0859C4.6851 51.6269 2.3974 61.6826 5.07807 71.6855C9.64721 88.749 26.9734 99.0863 44.0185 94.5191C44.0204 94.5185 44.0224 94.5197 44.0244 94.5191C52.0587 92.3589 56.9396 83.932 54.7912 75.9033C53.9892 72.9097 52.3329 70.3755 50.1587 68.5058L50.1162 68.4691C46.4497 65.3425 41.288 64.0472 36.2671 65.3929C30.4906 66.9423 25.4162 66.4995 21.454 64.099C17.4917 61.6986 14.8101 57.4755 13.3544 52.0447C12.8197 50.0394 12.691 48.0494 12.7992 46.1544C11.9744 45.5281 11.2038 44.841 10.4861 44.0855L10.4857 44.0859ZM20.0193 49.7437C19.8564 53.0064 20.2933 56.2921 21.3376 59.4238C21.9622 60.0281 22.6312 60.5472 23.3454 60.9804C24.2937 61.5546 25.3363 61.9945 26.4829 62.2802C24.3755 58.5478 23.4013 54.3505 23.5591 50.1892C22.3865 50.1552 21.2037 50.0111 20.0193 49.7433V49.7437ZM67.0466 60.8947C65.9556 63.1818 64.4626 65.3286 62.5669 67.2243C60.8658 68.9255 58.9644 70.3031 56.9394 71.3564C57.4931 72.4486 57.9462 73.6091 58.2824 74.829C60.7816 73.5947 63.1242 71.9404 65.2038 69.8609C66.0994 68.9654 66.9171 68.0214 67.6574 67.0351C67.7593 66.4671 67.8203 65.9019 67.8343 65.3378C67.8714 63.8798 67.6242 62.3993 67.0472 60.8945L67.0466 60.8947ZM39.7029 68.6892C42.5544 68.6896 45.4066 69.7722 47.5705 71.9363C51.9015 76.2671 51.8986 83.3429 47.5705 87.671C43.2396 92.0021 36.1636 91.9992 31.8357 87.671C27.5048 83.3402 27.5076 76.2642 31.8357 71.9361C34.0011 69.7706 36.8517 68.6886 39.7029 68.689V68.6892ZM39.7029 72.3146C37.7931 72.3142 35.8853 73.0501 34.4177 74.5177C31.4841 77.4513 31.4818 82.1536 34.4177 85.0892C37.3505 88.0222 42.0529 88.0251 44.9888 85.0892C47.9218 82.156 47.9244 77.4536 44.9888 74.5179C43.522 73.0517 41.6132 72.3152 39.7031 72.3148L39.7029 72.3146Z" fill="#FCC22E"/>
</svg>
